<svg width="53" height="53" viewBox="0 0 53 53" fill="none" xmlns="http://www.w3.org/2000/svg">
<circle cx="26.5" cy="26.5" r="26.5" fill="black"/>
<path d="M18 26C17.4477 26 17 26.4477 17 27C17 27.5523 17.4477 28 18 28V26ZM37.2071 27.7071C37.5976 27.3166 37.5976 26.6834 37.2071 26.2929L30.8431 19.9289C30.4526 19.5384 29.8195 19.5384 29.4289 19.9289C29.0384 20.3195 29.0384 20.9526 29.4289 21.3431L35.0858 27L29.4289 32.6569C29.0384 33.0474 29.0384 33.6805 29.4289 34.0711C29.8195 34.4616 30.4526 34.4616 30.8431 34.0711L37.2071 27.7071ZM18 28H36.5V26H18V28Z" fill="white"/>
</svg>
